<svg height="511pt" viewBox="0 -66 511.99997 511" width="511pt" xmlns="http://www.w3.org/2000/svg"><path d="m203.667969 41.574219c71.957031-7.234375 104.464843 24.769531 126.019531 58.171875 23.042969-17.992188 33.378906-40.417969 2.457031-64.8125-75.6875-59.714844-181.28125-27.480469-200.265625-9.011719-20.480468 19.929687-23.765625 48.816406-23.765625 48.816406 26.625-16.71875 58.367188-29.425781 95.554688-33.164062zm0 0" fill="#ff6930"/><path d="m223.164062 339.109375c16 15.441406 40.25 34.847656 66.636719 41.691406 9.984375 2.589844 19.699219-5.066406 19.699219-15.382812v-59.390625c-19.453125 17.292968-45.75 31.429687-86.335938 33.082031zm0 0" fill="#ff6930"/><path d="m489.816406 201.339844c0 47.957031 14.601563 99.980468 21.78125 122.660156 1.847656 5.832031-2.941406 11.601562-9.015625 10.90625-80.539062-9.238281-63.042969-98.59375-114.507812-98.59375-54.050781 0-54.050781 116.050781-196.328125 101.742188-123.289063-12.398438-177.945313-105.964844-190.335938-130.71875-1.878906-3.753907-1.878906-8.160157-.015625-11.917969 13.601563-27.429688 77.25-141.269531 202.273438-153.84375 142.277343-14.304688 130.355469 124.792969 184.40625 124.792969 51.460937 0 33.964843-89.351563 114.503906-98.589844 6.078125-.699219 10.863281 5.074218 9.019531 10.902344-7.179687 22.683593-21.78125 74.707031-21.78125 122.660156zm0 0" fill="#ffc265"/><path d="m211.46875 18.65625c-37.996094 3.820312-70.320312 17-97.300781 34.261719-4.9375 12.074219-6.054688 21.820312-6.054688 21.820312 26.625-16.71875 58.367188-29.425781 95.554688-33.164062 71.957031-7.234375 104.464843 24.769531 126.019531 58.171875 5.390625-4.207032 10.085938-8.660156 13.71875-13.324219-21.605469-36.511719-53.089844-75.695313-131.9375-67.765625zm0 0" fill="#ff5426"/><path d="m251.605469 362.507812c24.574219-3.773437 43.09375-12.617187 57.894531-23.597656v-32.882812c-19.453125 17.292968-45.75 31.429687-86.335938 33.082031 7.765626 7.496094 17.484376 15.925781 28.441407 23.398437zm0 0" fill="#ff5426"/><path d="m388.074219 198.640625c-62.945313.671875-54.050781 116.046875-196.328125 101.742187-107.417969-10.804687-162.726563-83.210937-183.382813-118.050781-3.039062 5.371094-5.359375 9.84375-6.972656 13.097657-1.859375 3.753906-1.855469 8.160156.023437 11.910156 12.394532 24.761718 67.046876 118.320312 190.332032 130.714844 142.277344 14.308593 142.277344-101.738282 196.328125-101.738282 51.464843 0 33.96875 89.351563 114.507812 98.589844 6.074219.699219 10.863281-5.070312 9.015625-10.902344-2.160156-6.835937-5-16.335937-7.910156-27.585937-55.878906-12.984375-51.097656-98.464844-115.613281-97.777344zm0 0" fill="#ffb541"/><path d="m221.625 154.25c-19.023438-2.246094-47.742188 15.050781-63.570312 25.875.777343 6.816406 1.191406 13.742188 1.191406 20.765625 0 4.097656-.140625 8.160156-.40625 12.1875 15.980468 10.847656 44.074218 27.550781 62.785156 25.34375 27.4375-3.238281 26.207031-42.085937 26.207031-42.085937s1.230469-38.847657-26.207031-42.085938zm0 0" fill="#ff6930"/><path d="m246.460938 182.207031c-2.320313 11.464844-8.488282 26.03125-24.835938 27.960938-18.710938 2.207031-47.132812-14.703125-63.113281-25.550781 0-.011719-.007813-.015626-.007813-.023438.480469 5.367188.742188 10.800781.742188 16.296875 0 4.097656-.140625 8.160156-.40625 12.1875 15.980468 10.847656 44.074218 27.550781 62.785156 25.34375 27.4375-3.238281 26.207031-42.085937 26.207031-42.085937s.199219-6.347657-1.371093-14.128907zm0 0" fill="#ff5426"/><path d="m1.425781 207.367188c9.527344 19.015624 43.867188 78.378906 114.878907 110.648437 26.777343-31.589844 42.941406-72.464844 42.941406-117.125 0-49.039063-19.488282-93.523437-51.132813-126.152344-62.855469 39.46875-97.121093 101.339844-106.699219 120.644531-1.878906 3.78125-1.878906 8.210938.011719 11.984376zm0 0" fill="#ffe9c8"/><path d="m8.363281 182.335938c-3.039062 5.367187-5.355469 9.835937-6.96875 13.085937-1.871093 3.769531-1.851562 8.1875.035157 11.949219 9.523437 19.015625 43.863281 78.375 114.875 110.644531 7.730468-9.121094 14.574218-19.023437 20.402343-29.558594-71.898437-24.714843-111.558593-77.816406-128.34375-106.121093zm0 0" fill="#ffdca7"/><path d="m82.351562 170.125c-8.933593 0-15.929687 8.6875-15.929687 19.785156 0 11.09375 6.996094 19.785156 15.929687 19.785156 8.933594 0 15.929688-8.691406 15.929688-19.785156 0-11.097656-6.996094-19.785156-15.929688-19.785156zm0 0" fill="#433f43"/></svg>