<svg height="512pt" viewBox="-16 0 512 512.00048" width="512pt" xmlns="http://www.w3.org/2000/svg"><path d="m114.3125 335.792969c-1.902344 0-7.148438-.890625-8.648438-2.292969-3.140624-2.9375.027344-7.667969 2.960938-10.808594 42.726562-45.722656 54.335938-115.460937 56.554688-165.910156.171874-3.890625 3.191406-7.058594 7.074218-7.410156 69.953125-6.355469 169.761719-63.015625 209.402344-118.882813 1.960938-2.765625 5.484375-3.941406 8.714844-2.914062 3.230468 1.03125 5.421875 4.03125 5.421875 7.421875v205.445312c0 4.300782-3.484375 7.789063-7.785157 7.789063-4.300781 0-7.785156-3.488281-7.785156-7.789063v-183.4375c-46.734375 51.683594-132.992187 98.554688-199.828125 107.136719-3.074219 52.429687-16.320312 122.015625-60.390625 169.183594-1.535156 1.640625-3.609375 2.46875-5.691406 2.46875zm0 0" fill="#808080"/><g fill-rule="evenodd"><path d="m372.507812.804688c-170.085937 37.339843-328.546874 196.519531-346.269531 372.054687 8.933594 36.152344 38.804688 27.570313 41.695313-4.824219.636718-7.226562.203125-15.664062 4.425781-32.28125 13.761719-66.152344 50.777344-127.941406 100.597656-178.628906 59.394531-60.402344 136.976563-104.992188 215.050781-122.132812 16.25-5.230469 12.546876-40.746094-15.5-34.1875zm0 0" fill="#e6e6e6"/><path d="m67.007812 481.984375 7.75-72.566406c4.570313-17.511719-2.515624-31.90625-19.863281-37.628907-2.980469-1.296874-6.21875-2.164062-9.601562-2.542968-6.824219-.722656-13.386719.667968-19.054688 3.613281-9.628906 5.027344-16.6875 14.652344-17.929687 26.210937l-8.125 75.777344c-.808594 7.742188 1.097656 15.171875 4.945312 21.328125 5.292969 8.464844 14.285156 14.507813 24.898438 15.632813 18.359375 1.964844 35.015625-11.441406 36.980468-29.824219zm0 0" fill="#ffdda6"/><path d="m74.757812 409.417969c3.410157-13.0625.347657-24.421875-8.644531-31.703125-3.066406-2.484375-6.824219-4.480469-11.21875-5.925782 14.601563 9.191407 1.558594 6.242188 3.875 18.292969.027344.203125.054688.40625.085938.609375.808593 4.679688.492187 9.824219-.925781 15.257813l-7.75 72.566406c-1.765626 16.53125-15.441407 29.042969-31.546876 29.96875 3.46875 1.734375 7.316407 2.890625 11.394532 3.324219 18.359375 1.964844 35.015625-11.445313 36.984375-29.824219zm0 0" fill="#fcc368"/><path d="m146.179688 376.558594c2.371093-22.078125-11.421876-42.191406-31.863282-48.550782-2.804687-.867187-5.753906-1.472656-8.789062-1.792968-12.347656-1.328125-24.117188 2.398437-33.167969 9.539062-9.339844 7.339844-15.847656 18.320313-17.207031 31.066406-.171875 1.675782-.257813 3.320313-.257813 4.96875 0 15.375 7.75 29.304688 19.863281 37.628907 6.074219 4.160156 13.214844 6.933593 21.050782 7.773437 13.042968 1.386719 25.417968-2.859375 34.640625-10.75 8.558593-7.339844 14.429687-17.800781 15.730469-29.882812zm0 0" fill="#50d960"/><path d="m146.179688 376.558594c2.371093-22.078125-11.421876-42.191406-31.863282-48.550782-2.71875-.839843-5.550781-1.445312-8.5-1.761718 14.660156 8.929687 23.679688 25.75 21.714844 43.953125-.894531 8.46875-4.078125 16.15625-8.820312 22.515625-2.023438 2.714844-4.335938 5.171875-6.882813 7.339844-9.25 7.917968-21.597656 12.164062-34.667969 10.75-.085937 0-.171875 0-.289062-.03125 5.582031 3.410156 12 5.664062 18.941406 6.417968 13.039062 1.386719 25.414062-2.859375 34.640625-10.75 8.554687-7.339844 14.425781-17.800781 15.726563-29.882812zm0 0" fill="#0f941e"/><path d="m397.34375 15.660156c-203.511719 45.488282-332.707031 204.609375-352.050781 353.585938 3.382812.378906 6.621093 1.246094 9.601562 2.542968 0-1.644531.085938-3.292968.257813-4.96875 1.359375-12.746093 7.867187-23.726562 17.207031-31.066406 13.761719-66.152344 50.777344-127.941406 100.597656-178.628906 59.394531-60.402344 136.976563-104.992188 215.050781-122.132812 7.457032-2.398438 10.726563-11.152344 9.335938-19.332032zm0 0" fill="#c2c7cc"/><path d="m320.890625 312.949219c-19.375 13.007812-25.792969 39.882812-25.878906 65.632812-.03125 16.210938 5.144531 15.199219 18.042969 11.675781l18.074218-4.972656c20.238282-13.320312 8.355469-61.871094-10.238281-72.335937zm0 0" fill="#f78411"/><path d="m481 378.582031c-.058594-25.75-6.507812-52.625-25.851562-65.632812-9.050782.550781-17.261719 70.371093-10.234376 72.335937l18.070313 4.972656c12.898437 3.527344 18.074219 4.535157 18.015625-11.675781zm0 0" fill="#f78411"/><path d="m455.148438 312.949219-63.09375-21.675781-71.164063 21.675781c-.691406 4.972656-1.039063 10.117187-1.039063 15.347656 0 17.253906 3.007813 33.378906 8.296876 48.867187 4.628906 13.671876 11.046874 26.878907 18.710937 39.941407 7.605469 13.003906 11.191406 18.554687 4.945313 26.066406l-24.40625 29.417969c-4.019532 4.828125 2.546874 10 5.523437 10h13.1875l41.898437.085937 41.898438-.085937h13.214844c2.976562 0 9.511718-5.171875 5.523437-10l-24.40625-29.417969c-6.246093-7.515625-2.6875-13.0625 4.945313-26.066406 7.664062-13.0625 14.054687-26.269531 18.710937-39.941407 5.289063-15.488281 8.296875-31.613281 8.296875-48.867187 0-5.230469-.347656-10.375-1.042968-15.347656zm0 0" fill="#fcc368"/><path d="m388.007812 240.441406c-30.855468 0-56.910156 26.414063-65.324218 62.625-.722656 3.238282-1.328125 6.503906-1.792969 9.886719 40.457031 13.4375 87.386719 14.476563 134.257813 0-.460938-3.382813-1.070313-6.648437-1.820313-9.886719-8.417969-36.210937-34.46875-62.625-65.320313-62.625zm0 0" fill="#ffdda6"/><path d="m453.328125 303.066406c-8.417969-36.210937-34.46875-62.625-65.320313-62.625-8.617187 0-16.859374 2.050782-24.4375 5.808594.636719-.027344 1.273438-.027344 1.910157-.027344 30.851562 0 56.933593 26.414063 65.320312 62.652344.753907 3.207031 1.359375 6.503906 1.820313 9.855469 7.492187-1.53125 15.007812-3.46875 22.527344-5.78125-.460938-3.378907-1.070313-6.644531-1.820313-9.882813zm0 0" fill="#fcc368"/><path d="m455.148438 312.949219c-7.515626 2.3125-15.035157 4.25-22.527344 5.78125 3.097656 33.464843-7.546875 68.230469-29.117188 96.121093-9.222656 11.90625-5.464844 27.714844.289063 35.601563l23.480469 32.136719h15.847656c2.976562 0 9.511718-5.144532 5.523437-10l-24.40625-29.417969c-6.246093-7.515625-2.6875-13.0625 4.945313-26.066406 6.128906-10.464844 11.449218-21.011719 15.730468-31.820313 1.070313-2.6875 2.050782-5.375 2.976563-8.121094 5.292969-15.488281 8.300781-31.613281 8.300781-48.867187 0-5.230469-.347656-10.375-1.042968-15.347656zm0 0" fill="#ffa719"/></g><path d="m410.847656 287.359375c-4.296875 0-7.785156-3.484375-7.785156-7.785156v-.753907c0-4.300781 3.488281-7.785156 7.785156-7.785156 4.300782 0 7.785156 3.484375 7.785156 7.785156v.753907c0 4.296875-3.484374 7.785156-7.785156 7.785156zm0 0" fill="#808080"/><path d="m152.515625 437.78125c-2.144531 0-4.28125-.882812-5.820313-2.609375l-51.847656-58.292969c-2.859375-3.210937-2.570312-8.136718.644532-10.992187 3.210937-2.859375 8.132812-2.574219 10.992187.640625l51.84375 58.289062c2.859375 3.214844 2.574219 8.136719-.640625 10.996094-1.484375 1.320312-3.332031 1.96875-5.171875 1.96875zm0 0" fill="#e6e6e6"/><path d="m194.269531 448.316406c1.414063-13.148437-8.097656-24.910156-21.226562-26.328125-13.15625-1.386719-24.925781 8.09375-26.34375 21.242188-1.386719 13.117187 8.125 24.910156 21.253906 26.296875 13.128906 1.417968 24.925781-8.089844 26.316406-21.210938zm0 0" fill="#fcc368" fill-rule="evenodd"/></svg>