<svg id="Capa_1" enable-background="new 0 0 512 512" height="512" viewBox="0 0 512 512" width="512" xmlns="http://www.w3.org/2000/svg"><path d="m330.297 257.649c-14.761-17.022-41.14-27.74-73.795-32.759 6.769 19.633 17.671 52.437 24.218 78.268 7.622 30.072 39.76-1.481 49.577-45.509z" fill="#ffe55a"/><path d="m287.165.064c-94.388-2.074-121.143 46.565-121.143 46.565 51.082-10.838 106.242-11.255 153.413 6.721 115.343 43.956 165.316 141.885 147.332 237.473-1.55 8.24-4.015 16.161-7.191 23.771l23.168 25.695c5.621 6.235 15.959 3.696 18.007-4.444 57.626-228.961-120.277-333.731-213.586-335.781z" fill="#ffe55a"/><path d="m.251 160.307c4.908 37.75 114.596 64.2 195.032 61.447 80.436-2.754 146.549 18.364 147.926 69.07s-29.697 81.522-62.64 86.226c0 0-39.689-44.382-92.969-16.213-8.541 4.516-6.899 17.173 2.481 19.49 20.536 5.071 47.08 17.955 53.527 50.652 5.906 29.957-1.728 51.858-9.553 65.299-4.367 7.501 1.902 16.809 10.502 15.619 23.473-3.25 57.694-17.507 65.661-71.812 0 0 138.566-53.672 156.55-149.261s-31.989-193.518-147.332-237.473c-132.281-50.411-327.396 43.798-319.185 106.956z" fill="#ffaa5c"/><path d="m459.577 314.595c-51.496 66.655-150.437 102.681-170.086 109.337-2.033.689-3.405 2.563-3.493 4.707-1.11 26.838-18.317 47.364-43.463 47.336-2.217 8.117-5.332 14.895-8.479 20.301-4.367 7.501 1.902 16.809 10.502 15.619 23.473-3.25 57.694-17.507 65.661-71.812-.001.002 115.686-44.824 149.358-125.488z" fill="#ff9838"/><path d="m322.911 280.354c3.022-6.945 5.582-14.613 7.386-22.705-14.761-17.022-41.14-27.74-73.795-32.759 2.493 7.232 5.548 16.253 8.738 26.051 26.522 4.653 47.359 14.275 57.671 29.413z" fill="#ffd91d"/><path d="m195.283 221.753c80.436-2.754 146.549 18.364 147.926 69.07.373 13.734-1.65 25.995-5.431 36.687 9.525-14.132 15.334-32.729 14.721-55.268-1.377-50.706-67.49-71.824-147.926-69.07-80.436 2.753-190.124-23.697-195.032-61.447-.547-4.206-.183-8.551.995-12.981-7.801 10.835-11.582 21.586-10.285 31.563 4.908 37.749 114.596 64.2 195.032 61.446z" fill="#ff9838"/><path d="m326.64 34.355c-41.261-15.724-88.154-18.482-133.824-12.806-19.714 12.215-26.794 25.08-26.794 25.08 51.082-10.838 106.242-11.255 153.413 6.721 115.343 43.956 165.316 141.885 147.332 237.473-1.55 8.24-4.015 16.161-7.191 23.771l13.635 15.123c6.201-11.767 10.857-24.301 13.356-37.586 19.522-103.76-34.723-210.062-159.927-257.776z" fill="#ffd91d"/><path d="m264.03 89.483c-8.723-11.737-50.225 8.662-68.715 18.585 3.062 12.051 4.899 25.186 4.736 39.195 20.049 10.418 55.939 26.903 63.979 16.085 11.302-15.208 11.02-36.933 11.02-36.933s.283-21.724-11.02-36.932z" fill="#ffe55a"/><path d="m198.816 126.393c.867 6.708 1.319 13.672 1.235 20.87 20.049 10.418 55.939 26.904 63.979 16.085 3.865-5.2 6.374-11.161 8.004-16.756-17.317 1.847-50.122-10.34-73.218-20.199z" fill="#ffd91d"/><path d="m166.023 46.629c-92.166 19.556-171.055 73.042-165.772 113.678 4.599 35.377 101.223 60.831 179.553 61.624 42.479-78.685 8.412-144.706-13.781-175.302z" fill="#ffeca1"/><path d="m9.541 141.726c-.546-4.203-.184-8.543.992-12.969-7.795 10.829-11.579 21.577-10.282 31.55 4.599 35.377 101.223 60.831 179.553 61.624 3.391-6.281 6.289-12.48 8.749-18.589-78.233-.905-174.423-26.32-179.012-61.616z" fill="#ffdf85"/><ellipse cx="94.011" cy="126.179" fill="#994e37" rx="13.493" ry="13.494" transform="matrix(.026 -1 1 .026 -34.596 216.84)"/></svg>