<?xml version="1.0" encoding="iso-8859-1"?>
<!-- Generator: Adobe Illustrator 19.0.0, SVG Export Plug-In . SVG Version: 6.00 Build 0)  -->
<svg version="1.1" id="Layer_1" xmlns="http://www.w3.org/2000/svg" xmlns:xlink="http://www.w3.org/1999/xlink" x="0px" y="0px"
	 viewBox="0 0 511.999 511.999" style="enable-background:new 0 0 511.999 511.999;" xml:space="preserve">
<path style="fill:#807A72;" d="M366.912,320.116c-9.376,0.001-18.179-4.297-24.834-12.307
	c-14.401-17.331-16.312-47.827-4.758-75.887c26.945-65.437,37.811-116.489,29.069-136.563c-1.737-3.991-4.108-6.435-7.462-7.693
	c-27.49-10.3-69.71,65.967-85.855,104.521c-1.79,4.277-6.71,6.292-10.986,4.501c-4.276-1.79-6.292-6.71-4.501-10.986
	c0.548-1.31,13.642-32.403,32.452-62.008c27.166-42.758,52.327-60.175,74.785-51.748c7.681,2.88,13.388,8.502,16.963,16.71
	c14.618,33.567-11.856,108.175-28.937,149.659c-10.627,25.81-6.337,48.554,2.146,58.764c4.255,5.121,9.299,7.117,14.997,5.92
	c6.773-1.418,30.463-11.579,50.979-82.796c18.097-62.822,70.724-204.205,74.821-214.787c1.652-4.267,6.593-6.45,10.86-4.797
	c4.266,1.653,6.45,6.593,4.797,10.86c-3.904,10.082-56.736,152.25-74.343,213.372c-16.063,55.758-38.675,89.349-63.673,94.583
	C371.241,319.892,369.061,320.116,366.912,320.116z"/>
<path style="fill:#FF9940;" d="M350.66,493.295c-31.923-28.376-69.127-53.391-81.134-61.254v-54.202
	c0-5.722-5.877-9.852-11.264-7.891c-38.958,14.167-50.928,46.823-54.461,62.06l-55.092-3.06L272.76,192.849
	c2.147-4.086,0.592-9.139-3.481-11.312c-33.075-17.642-81.371-19.368-129.188-4.619c-52.324,16.138-95.066,49.701-117.266,92.085
	C-3.542,319.337-7.299,375.466,12.773,419.147c16.831,36.628,49.205,62.131,91.158,71.813c10.356,2.389,20.796,3.372,30.972,3.372
	c36.041-0.002,68.694-12.319,81.894-18.03c18.751,21.099,46.445,33.275,80.561,35.321c3.614,0.217,7.128,0.312,10.51,0.312
	c22.082,0,38.465-4.022,39.253-4.22C353.535,506.111,355.613,497.696,350.66,493.295z"/>
<path style="fill:#F5760F;" d="M348.523,491.411c-0.444,0.201-0.906,0.379-1.404,0.503c-0.788,0.197-17.171,4.22-39.253,4.22
	c-3.382,0-6.895-0.094-10.51-0.312c-34.116-2.046-61.81-14.222-80.561-35.321c-13.198,5.71-45.853,18.028-81.894,18.03
	c-10.176,0-20.617-0.982-30.972-3.372c-41.953-9.682-74.326-35.185-91.158-71.813c-7.496-16.313-11.665-34.364-12.578-53.2
	c-1.132,24.511,3.008,48.171,12.578,68.999c16.831,36.627,49.205,62.131,91.158,71.813c10.356,2.39,20.796,3.372,30.972,3.372
	c36.041-0.002,68.694-12.319,81.894-18.03c18.751,21.099,46.445,33.275,80.561,35.321c3.614,0.217,7.128,0.312,10.51,0.312
	c22.082,0,38.465-4.022,39.253-4.22c6.416-1.602,8.494-10.018,3.541-14.419C349.951,492.664,349.237,492.038,348.523,491.411z"/>
<path style="fill:#FFD042;" d="M188.795,319.071c6.335,0,12.532-0.591,18.543-1.71l65.422-124.512
	c2.147-4.086,0.592-9.139-3.481-11.312c-33.075-17.642-81.371-19.368-129.188-4.619c-18.048,5.566-34.953,13.207-50.271,22.565
	c-1.155,6.105-1.767,12.403-1.767,18.845C88.051,273.967,133.156,319.071,188.795,319.071z"/>
<circle style="fill:#FFB266;" cx="164.588" cy="218.329" r="20.988"/>
<circle style="fill:#807A72;" cx="164.588" cy="218.329" r="12.593"/>
<circle style="fill:#FFD042;" cx="445.829" cy="163.76" r="49.396"/>
<path style="fill:#FFB266;" d="M396.864,157.295l87.799,36.967c6.457-8.208,10.365-18.508,10.54-29.721l-84.451-35.558
	C403.33,136.468,398.3,146.315,396.864,157.295z"/>
<path style="fill:#FFC412;" d="M458.418,207.983c-27.28,0-49.397-22.116-49.397-49.397c0-18.223,9.875-34.13,24.559-42.692
	c-21.358,5.447-37.152,24.81-37.152,47.865c0,27.281,22.115,49.397,49.397,49.397c9.057,0,17.539-2.449,24.837-6.705
	C466.747,207.45,462.645,207.983,458.418,207.983z"/>
<path style="fill:#FF9940;" d="M417.035,131.629l-6.284-2.646c-7.42,7.484-12.451,17.332-13.888,28.312l12.326,5.189
	c-0.101-1.288-0.168-2.585-0.168-3.899C409.022,148.637,411.973,139.382,417.035,131.629z"/>
<g>
	<path style="fill:#F5760F;" d="M67.029,335.851c-6.217,0-12.48-1.959-17.792-6.013c-12.879-9.829-15.361-28.305-5.532-41.185
		c2.812-3.684,8.081-4.395,11.767-1.58c3.687,2.812,4.394,8.08,1.581,11.767c-4.213,5.52-3.149,13.439,2.371,17.651
		c5.52,4.212,13.437,3.149,17.65-2.372c2.812-3.684,8.081-4.395,11.767-1.58c3.686,2.813,4.394,8.081,1.58,11.767
		C84.646,331.872,75.885,335.851,67.029,335.851z"/>
	<path style="fill:#F5760F;" d="M125.797,373.629c-6.216,0-12.48-1.959-17.792-6.012c-12.88-9.83-15.362-28.306-5.532-41.186
		c2.815-3.686,8.081-4.394,11.767-1.58c3.687,2.812,4.394,8.08,1.581,11.767c-4.213,5.52-3.149,13.439,2.371,17.651
		c5.52,4.21,13.438,3.148,17.65-2.372c2.812-3.684,8.081-4.395,11.767-1.58c3.686,2.813,4.394,8.081,1.58,11.767
		C143.414,369.65,134.654,373.629,125.797,373.629z"/>
	<path style="fill:#F5760F;" d="M75.504,398.972c-6.4,0-12.592-2.082-17.765-6.031c-12.879-9.829-15.361-28.305-5.532-41.184
		c2.813-3.686,8.081-4.395,11.767-1.58c3.687,2.812,4.394,8.08,1.581,11.767c-4.212,5.52-3.149,13.438,2.371,17.65
		c2.674,2.04,5.987,2.922,9.317,2.47c3.334-0.448,6.293-2.166,8.333-4.841c2.813-3.684,8.081-4.395,11.767-1.58
		c3.687,2.812,4.394,8.08,1.581,11.767c-4.762,6.239-11.668,10.252-19.447,11.296C78.148,398.883,76.822,398.972,75.504,398.972z"/>
</g>
<path style="fill:#64DDE3;" d="M273.201,5.856c-21.915-7.451-45.802,4.32-53.252,26.235c-6.482,19.073,7.239,69.481,10.055,79.392
	c1.574,5.54,8.438,7.894,13.08,4.445c8.272-6.142,49.87-37.749,56.351-56.821C306.883,37.195,295.114,13.305,273.201,5.856z"/>
<path style="fill:#38CED9;" d="M228.802,40.529c7.45-21.915,31.337-33.686,53.252-26.235c3.893,1.323,7.459,3.173,10.662,5.432
	C287.86,13.506,281.212,8.579,273.2,5.856c-21.915-7.451-45.802,4.32-53.252,26.235c-6.482,19.073,7.239,69.481,10.055,79.392
	c1.07,3.767,4.587,6.055,8.187,6.053C234.368,103.687,222.736,58.382,228.802,40.529z"/>
<path style="fill:#64DDE3;" d="M415.81,362.635c-19.155-6.21-69.37,8.22-79.242,11.174c-5.525,1.655-7.771,8.55-4.262,13.142
	c6.259,8.185,38.45,49.332,57.61,55.545c0,0,0,0,0.001,0c4.287,1.389,8.635,2.049,12.916,2.049c17.706,0,34.212-11.303,39.96-29.035
	C449.934,393.494,437.829,369.775,415.81,362.635z"/>
<path style="fill:#38CED9;" d="M441.245,385.632c0.677,5.801,0.158,11.831-1.757,17.741c-5.75,17.731-22.255,29.035-39.96,29.035
	c-4.282,0-8.629-0.66-12.916-2.049c-0.001,0-0.001,0-0.001,0c-17.291-5.607-45.185-39.652-55.067-52.261
	c-1.362,2.744-1.277,6.186,0.763,8.855c6.259,8.185,38.45,49.332,57.61,55.545c0,0,0,0,0.001,0
	c4.287,1.389,8.635,2.049,12.916,2.049c17.706,0,34.212-11.303,39.96-29.035C446.103,405.309,445.272,394.745,441.245,385.632z"/>
<path style="fill:#64DDE3;" d="M89.058,73.586C89.057,73.586,89.057,73.586,89.058,73.586c-15.969-16.758-42.59-17.397-59.346-1.432
	C12.955,88.12,12.312,114.743,28.278,131.5c13.896,14.583,64.923,25.788,75.011,27.886c5.654,1.183,10.901-3.836,10.002-9.53
	C111.682,139.678,102.953,88.169,89.058,73.586z"/>
<path style="fill:#38CED9;" d="M40.717,127.303c-15.966-16.757-15.323-43.379,1.433-59.346c2.896-2.76,6.093-5.012,9.474-6.781
	c-7.969,1.345-15.633,4.995-21.912,10.977c-16.757,15.967-17.399,42.589-1.433,59.346c13.896,14.583,64.923,25.788,75.011,27.886
	c4.001,0.837,7.789-1.438,9.347-4.855C97.864,151.314,53.523,140.743,40.717,127.303z"/>
<g>
	<circle style="fill:#89EBF0;" cx="67.063" cy="88.202" r="12.593"/>
	<circle style="fill:#89EBF0;" cx="276.948" cy="46.226" r="12.593"/>
	<circle style="fill:#89EBF0;" cx="407.075" cy="390.432" r="12.593"/>
</g>
<g>
</g>
<g>
</g>
<g>
</g>
<g>
</g>
<g>
</g>
<g>
</g>
<g>
</g>
<g>
</g>
<g>
</g>
<g>
</g>
<g>
</g>
<g>
</g>
<g>
</g>
<g>
</g>
<g>
</g>
</svg>
